<svg width="298" height="195" viewBox="0 0 298 195" fill="none" xmlns="http://www.w3.org/2000/svg">
<path d="M281.556 188.074H20.117C16.6112 188.074 13.7731 185.238 13.7731 181.733V6.34146C13.7731 2.83697 16.6112 0 20.117 0H281.556C285.062 0 287.9 2.83697 287.9 6.34146V181.65C287.983 185.238 285.062 188.074 281.556 188.074Z" fill="#00D5E4"/>
<path d="M272.29 181.733H29.3827C25.8768 181.733 23.0387 178.896 23.0387 175.392V12.7664C23.0387 9.2619 25.8768 6.42493 29.3827 6.42493H272.29C275.796 6.42493 278.634 9.2619 278.634 12.7664V175.392C278.718 178.813 275.796 181.733 272.29 181.733Z" fill="#065090"/>
<path d="M96.4953 24.1143H62.939V27.8691H96.4953V24.1143Z" fill="#FCFDFD"/>
<path d="M84.3082 32.4583H62.939V36.2131H84.3082V32.4583Z" fill="#FCFDFD"/>
<path d="M182.389 32.4583H96.3284V36.2131H182.389V32.4583Z" fill="#FCFDFD"/>
<path d="M235.812 32.4583H190.737V36.2131H235.812V32.4583Z" fill="#FF6452"/>
<path d="M125.627 40.8023H71.2863V44.5571H125.627V40.8023Z" fill="#00D050"/>
<path d="M223.291 40.8023H142.322V44.5571H223.291V40.8023Z" fill="#FCFDFD"/>
<path d="M139.401 49.1464H62.939V52.9012H139.401V49.1464Z" fill="#FF6452"/>
<path d="M200.754 49.1464H146.412V52.9012H200.754V49.1464Z" fill="#00D5E4"/>
<path d="M125.627 57.4904H71.2863V61.2452H125.627V57.4904Z" fill="#FCFDFD"/>
<path d="M142.322 65.8344H62.939V69.5892H142.322V65.8344Z" fill="#FCFDFD"/>
<path d="M117.28 74.1785H62.939V77.9333H117.28V74.1785Z" fill="#FCFDFD"/>
<path d="M170.286 82.5225H79.6337V86.2773H170.286V82.5225Z" fill="#FF6452"/>
<path d="M209.101 82.5225H179.802V86.2773H209.101V82.5225Z" fill="#FCFDFD"/>
<path d="M250.838 82.5225H221.538V86.2773H250.838V82.5225Z" fill="#FCFDFD"/>
<path d="M124.96 90.8665H87.981V94.6213H124.96V90.8665Z" fill="#FCFDFD"/>
<path d="M137.314 99.2106H87.981V102.965H137.314V99.2106Z" fill="#FF6452"/>
<path d="M209.101 99.2106H154.76V102.965H209.101V99.2106Z" fill="#FCFDFD"/>
<path d="M244.16 99.2106H221.538V102.965H244.16V99.2106Z" fill="#FF6452"/>
<path d="M96.3283 107.555H62.939V111.309H96.3283V107.555Z" fill="#FCFDFD"/>
<path d="M117.28 115.899H62.939V119.653H117.28V115.899Z" fill="#FCFDFD"/>
<path d="M186.563 124.243H87.981V127.997H186.563V124.243Z" fill="#FCFDFD"/>
<path d="M257.515 124.243H196.496V127.997H257.515V124.243Z" fill="#00D5E4"/>
<path d="M121.454 132.587H87.981V136.341H121.454V132.587Z" fill="#FCFDFD"/>
<path d="M163.19 132.587H129.718V136.341H163.19V132.587Z" fill="#00D050"/>
<path d="M204.927 132.587H171.454V136.341H204.927V132.587Z" fill="#FCFDFD"/>
<path d="M117.28 140.931H62.939V144.685H117.28V140.931Z" fill="#FCFDFD"/>
<path d="M133.975 149.275H79.6337V153.03H133.975V149.275Z" fill="#00D050"/>
<path d="M198.667 149.275H144.326V153.03H198.667V149.275Z" fill="#00D050"/>
<path d="M173.625 165.963H143.157V169.718H173.625V165.963Z" fill="#FCFDFD"/>
<path d="M160.269 157.619H79.6337V161.374H160.269V157.619Z" fill="#FCFDFD"/>
<path d="M41.9871 24.1143H38.2308V27.8691H41.9871V24.1143Z" fill="#5E94C1"/>
<path d="M41.9871 32.4583H38.2308V36.2131H41.9871V32.4583Z" fill="#5E94C1"/>
<path d="M41.9871 40.8023H38.2308V44.5571H41.9871V40.8023Z" fill="#5E94C1"/>
<path d="M41.9871 49.1464H38.2308V52.9012H41.9871V49.1464Z" fill="#5E94C1"/>
<path d="M41.9871 57.4904H38.2308V61.2452H41.9871V57.4904Z" fill="#5E94C1"/>
<path d="M41.9871 65.8344H38.2308V69.5892H41.9871V65.8344Z" fill="#5E94C1"/>
<path d="M41.9871 74.1785H38.2308V77.9333H41.9871V74.1785Z" fill="#5E94C1"/>
<path d="M41.9871 82.5225H38.2308V86.2773H41.9871V82.5225Z" fill="#5E94C1"/>
<path d="M41.9871 90.8665H38.2308V94.6213H41.9871V90.8665Z" fill="#5E94C1"/>
<path d="M41.9871 99.2106H38.2308V102.965H41.9871V99.2106Z" fill="#5E94C1"/>
<path d="M41.9871 107.555H38.2308V111.309H41.9871V107.555Z" fill="#5E94C1"/>
<path d="M41.9871 115.899H38.2308V119.653H41.9871V115.899Z" fill="#5E94C1"/>
<path d="M41.9871 124.243H38.2308V127.997H41.9871V124.243Z" fill="#5E94C1"/>
<path d="M41.9871 132.587H38.2308V136.341H41.9871V132.587Z" fill="#5E94C1"/>
<path d="M41.9871 140.931H38.2308V144.685H41.9871V140.931Z" fill="#5E94C1"/>
<path d="M41.9871 149.275H38.2308V153.03H41.9871V149.275Z" fill="#5E94C1"/>
<path d="M41.9871 157.619H38.2308V161.374H41.9871V157.619Z" fill="#5E94C1"/>
<path d="M41.9871 165.963H38.2308V169.718H41.9871V165.963Z" fill="#5E94C1"/>
<path d="M119.951 165.963H79.6337V169.718H119.951V165.963Z" fill="#FCFDFD"/>
<path d="M237.649 169.634L221.789 162.875V160.122L237.649 153.363V156.284L225.044 161.457L237.649 166.63V169.634Z" fill="#FCFDFD"/>
<path d="M248.834 149.358L241.906 173.306H239.569L246.497 149.358H248.834Z" fill="#FCFDFD"/>
<path d="M266.531 162.875L250.671 169.634V166.714L263.275 161.54L250.671 156.367V153.447L266.531 160.205V162.875Z" fill="#FCFDFD"/>
<path d="M281.305 195H16.6947C7.51261 195 0 187.49 0 178.312H298C298 187.574 290.487 195 281.305 195Z" fill="#00BBD3"/>
<g opacity="0.1">
<g opacity="0.1">
<path opacity="0.1" d="M108.015 181.733L170.286 6.34149H146.663L84.3916 181.733H108.015Z" fill="white"/>
</g>
<g opacity="0.1">
<path opacity="0.1" d="M29.4661 181.733H40.568L102.839 6.34149H29.4661C25.9602 6.34149 23.1221 9.17846 23.1221 12.683V175.308C23.0386 178.813 25.9602 181.733 29.4661 181.733Z" fill="white"/>
</g>
<g opacity="0.1">
<path opacity="0.1" d="M240.069 181.733H272.374C275.88 181.733 278.718 178.896 278.718 175.392V72.9269L240.069 181.733Z" fill="white"/>
</g>
</g>
<g opacity="0.1">
<g opacity="0.1">
<path opacity="0.1" d="M153.841 181.733H197.164L259.435 6.34149H216.113L153.841 181.733Z" fill="white"/>
</g>
</g>
<path d="M295.746 186.656C297.165 184.236 298 181.316 298 178.312H0C0 181.316 0.834734 184.236 2.25378 186.656H295.746Z" fill="#15D7E2"/>
</svg>
